<svg width="18" height="18" viewBox="0 0 18 18" fill="none" xmlns="http://www.w3.org/2000/svg">
<path d="M10.1172 15.0312C10 15.1484 9.80469 15.2266 9.60938 15.2266C9.41406 15.2266 9.25781 15.1484 9.14062 15.0312L4.0625 9.95312C3.90625 9.79688 3.82812 9.64062 3.82812 9.44531C3.82812 9.25 3.90625 9.09375 4.0625 8.9375L9.14062 3.85938C9.25781 3.74219 9.41406 3.66406 9.60938 3.66406C9.80469 3.66406 10 3.74219 10.1172 3.85938L11.25 5.03125C11.4062 5.14844 11.4844 5.30469 11.4844 5.5C11.4844 5.69531 11.4062 5.89062 11.25 6.00781L7.85156 9.44531L11.25 12.8828C11.4062 13 11.4844 13.1953 11.4844 13.3906C11.4844 13.5859 11.4062 13.7422 11.25 13.8594L10.1172 15.0312ZM17.1094 9.44531C17.1094 7.88281 16.7578 6.4375 15.9766 5.14844C15.1953 3.82031 14.1797 2.80469 12.8516 2.02344C11.5625 1.24219 10.1172 0.890625 8.55469 0.890625C6.99219 0.890625 5.54688 1.24219 4.25781 2.02344C2.92969 2.80469 1.91406 3.82031 1.13281 5.14844C0.351562 6.4375 0 7.88281 0 9.44531C0 11.0078 0.351562 12.4531 1.13281 13.7422C1.91406 15.0703 2.92969 16.0859 4.25781 16.8672C5.54688 17.6484 6.99219 18 8.55469 18C10.1172 18 11.5625 17.6484 12.8516 16.8672C14.1797 16.0859 15.1953 15.0703 15.9766 13.7422C16.7578 12.4531 17.1094 11.0078 17.1094 9.44531Z" fill="black"/>
</svg>
