<svg width="18" height="18" viewBox="0 0 18 18" fill="none" xmlns="http://www.w3.org/2000/svg">
<path d="M7.96875 15.0312C7.85156 15.1484 7.69531 15.2266 7.5 15.2266C7.30469 15.2266 7.10938 15.1484 6.99219 15.0312L5.85938 13.8594C5.70312 13.7422 5.625 13.5859 5.625 13.3906C5.625 13.1953 5.70312 13 5.85938 12.8828L9.25781 9.44531L5.85938 6.00781C5.70312 5.89062 5.625 5.69531 5.625 5.5C5.625 5.30469 5.70312 5.14844 5.85938 5.03125L6.99219 3.85938C7.10938 3.74219 7.30469 3.66406 7.5 3.66406C7.69531 3.66406 7.85156 3.74219 7.96875 3.85938L13.0469 8.9375C13.2031 9.09375 13.2812 9.25 13.2812 9.44531C13.2812 9.64062 13.2031 9.79688 13.0469 9.95312L7.96875 15.0312ZM17.1094 9.44531C17.1094 7.88281 16.7578 6.4375 15.9766 5.14844C15.1953 3.82031 14.1797 2.80469 12.8516 2.02344C11.5625 1.24219 10.1172 0.890625 8.55469 0.890625C6.99219 0.890625 5.54688 1.24219 4.25781 2.02344C2.92969 2.80469 1.91406 3.82031 1.13281 5.14844C0.351562 6.4375 0 7.88281 0 9.44531C0 11.0078 0.351562 12.4531 1.13281 13.7422C1.91406 15.0703 2.92969 16.0859 4.25781 16.8672C5.54688 17.6484 6.99219 18 8.55469 18C10.1172 18 11.5625 17.6484 12.8516 16.8672C14.1797 16.0859 15.1953 15.0703 15.9766 13.7422C16.7578 12.4531 17.1094 11.0078 17.1094 9.44531Z" fill="white"/>
</svg>
