<svg width="16" height="17" viewBox="0 0 16 17" fill="none" xmlns="http://www.w3.org/2000/svg">
<g clip-path="url(#clip0_25_1383)">
<path d="M15.17 9.65879L16.4831 3.88101C16.5779 3.46385 16.2609 3.0666 15.8331 3.0666H4.92244L4.66783 1.82187C4.60439 1.51162 4.33139 1.28882 4.01469 1.28882H1.16667C0.798472 1.28882 0.5 1.58729 0.5 1.95549V2.39993C0.5 2.76812 0.798472 3.0666 1.16667 3.0666H3.10786L5.05919 12.6065C4.59236 12.8749 4.27778 13.3783 4.27778 13.9555C4.27778 14.8146 4.97422 15.511 5.83333 15.511C6.69244 15.511 7.38889 14.8146 7.38889 13.9555C7.38889 13.5201 7.20981 13.1267 6.92156 12.8444H12.7451C12.4569 13.1267 12.2778 13.5201 12.2778 13.9555C12.2778 14.8146 12.9742 15.511 13.8333 15.511C14.6924 15.511 15.3889 14.8146 15.3889 13.9555C15.3889 13.3396 15.0309 12.8074 14.5117 12.5553L14.6649 11.881C14.7597 11.4638 14.4427 11.0666 14.0149 11.0666H6.55881L6.377 10.1777H14.5199C14.8312 10.1777 15.101 9.96232 15.17 9.65879Z" fill="white"/>
</g>
<defs>
<clipPath id="clip0_25_1383">
<rect width="16" height="16" fill="white" transform="translate(0 0.899902)"/>
</clipPath>
</defs>
</svg>
