<svg width="16" height="16" viewBox="0 0 16 16" fill="none" xmlns="http://www.w3.org/2000/svg">
<g clip-path="url(#clip0_25_680)">
<path d="M16.1364 3.93117L14.4507 1.24026C14.3 0.998699 14.0325 0.850647 13.7468 0.850647H3.25325C2.96754 0.850647 2.7 0.998699 2.54935 1.24026L0.863639 3.93117C-0.00649071 5.32078 0.764938 7.25324 2.39091 7.47402C2.5078 7.48961 2.62728 7.4974 2.74676 7.4974C3.51559 7.4974 4.19611 7.15974 4.66364 6.63766C5.13117 7.15974 5.81429 7.4974 6.58052 7.4974C7.34935 7.4974 8.02987 7.15974 8.49741 6.63766C8.96494 7.15974 9.64806 7.4974 10.4143 7.4974C11.1831 7.4974 11.8636 7.15974 12.3312 6.63766C12.8013 7.15974 13.4818 7.4974 14.2481 7.4974C14.3701 7.4974 14.487 7.48961 14.6039 7.47402C16.2351 7.25584 17.0091 5.32337 16.1364 3.93117ZM14.2533 8.33117C13.9935 8.33117 13.7364 8.29221 13.487 8.23247V10.8247H3.51299V8.23247C3.26364 8.28961 3.0065 8.33117 2.74676 8.33117C2.59091 8.33117 2.43247 8.32078 2.27922 8.3C2.13377 8.27922 1.99091 8.24545 1.85325 8.20649V13.3182C1.85325 13.7779 2.22468 14.1493 2.68442 14.1493H14.3208C14.7805 14.1493 15.152 13.7779 15.152 13.3182V8.20649C15.0117 8.24805 14.8714 8.28182 14.726 8.3C14.5675 8.32078 14.4117 8.33117 14.2533 8.33117Z" fill="white"/>
</g>
<defs>
<clipPath id="clip0_25_680">
<rect width="16" height="16" fill="white"/>
</clipPath>
</defs>
</svg>
