<svg width="16" height="17" viewBox="0 0 16 17" fill="none" xmlns="http://www.w3.org/2000/svg">
<g clip-path="url(#clip0_37_700)">
<path d="M8.5 0.649902C4.21875 0.649902 0.75 4.11865 0.75 8.3999C0.75 12.6812 4.21875 16.1499 8.5 16.1499C12.7812 16.1499 16.25 12.6812 16.25 8.3999C16.25 4.11865 12.7812 0.649902 8.5 0.649902ZM11.3903 10.4312L10.7653 11.2124C10.7243 11.2637 10.6736 11.3064 10.6161 11.3381C10.5585 11.3697 10.4954 11.3898 10.4301 11.397C10.3648 11.4043 10.2988 11.3986 10.2357 11.3803C10.1726 11.3621 10.1138 11.3315 10.0625 11.2905L7.96875 9.73678C7.82246 9.61965 7.70437 9.47112 7.62323 9.30219C7.54209 9.13326 7.49998 8.94825 7.5 8.76084V3.8999C7.5 3.76729 7.55268 3.64012 7.64645 3.54635C7.74021 3.45258 7.86739 3.3999 8 3.3999H9C9.13261 3.3999 9.25979 3.45258 9.35355 3.54635C9.44732 3.64012 9.5 3.76729 9.5 3.8999V8.3999L11.3125 9.72803C11.3638 9.76907 11.4065 9.81982 11.4382 9.87737C11.4699 9.93493 11.4899 9.99817 11.4971 10.0635C11.5043 10.1288 11.4986 10.1948 11.4803 10.2579C11.462 10.321 11.4314 10.3799 11.3903 10.4312Z" fill="black"/>
</g>
<defs>
<clipPath id="clip0_37_700">
<rect width="16" height="16" fill="white" transform="translate(0 0.899902)"/>
</clipPath>
</defs>
</svg>
