<svg width="16" height="17" viewBox="0 0 16 17" fill="none" xmlns="http://www.w3.org/2000/svg">
<g clip-path="url(#clip0_25_1341)">
<path d="M15.1806 6.17781L10.8114 5.54169L8.85882 1.58975C8.68329 1.23661 8.34091 1.05811 7.99852 1.05811C7.65822 1.05811 7.31822 1.23422 7.1421 1.58975L5.18897 5.54139L0.819414 6.17691C0.0358317 6.29034 -0.278198 7.25422 0.289862 7.80646L3.45076 10.8811L2.7027 15.2238C2.59643 15.8441 3.09165 16.3417 3.64628 16.3417C3.79344 16.3417 3.94479 16.3068 4.09016 16.2297L7.99911 14.1796L11.9078 16.2303C12.0528 16.3065 12.2039 16.3411 12.3505 16.3411C12.9057 16.3411 13.4018 15.8453 13.2955 15.2247L12.5484 10.8817L15.7099 7.80766C16.2782 7.25542 15.9642 6.29124 15.1806 6.17781ZM11.5466 9.85542L11.0057 10.3814L11.1334 11.1241L11.7161 14.5106L8.66747 12.9109L7.99941 12.5605L8.00031 3.09214L9.52359 6.17542L9.85732 6.85094L10.6039 6.9596L14.0137 7.45602L11.5466 9.85542Z" fill="white"/>
</g>
<defs>
<clipPath id="clip0_25_1341">
<rect width="16" height="16" fill="white" transform="translate(0 0.699951)"/>
</clipPath>
</defs>
</svg>
