<svg width="16" height="17" viewBox="0 0 16 17" fill="none" xmlns="http://www.w3.org/2000/svg">
<g clip-path="url(#clip0_37_750)">
<path d="M15.1805 6.17781L10.8112 5.54169L8.85869 1.58975C8.68317 1.23661 8.34078 1.05811 7.9984 1.05811C7.6581 1.05811 7.3181 1.23422 7.14198 1.58975L5.18884 5.54139L0.819292 6.17691C0.0357097 6.29034 -0.27832 7.25422 0.289739 7.80646L3.45063 10.8811L2.70257 15.2238C2.59631 15.8441 3.09153 16.3417 3.64616 16.3417C3.79332 16.3417 3.94466 16.3068 4.09004 16.2297L7.99899 14.1796L11.9076 16.2303C12.0527 16.3065 12.2038 16.3411 12.3503 16.3411C12.9056 16.3411 13.4017 15.8453 13.2954 15.2247L12.5482 10.8817L15.7097 7.80766C16.2781 7.25542 15.9641 6.29124 15.1805 6.17781ZM11.5465 9.85542L11.0056 10.3814L11.1333 11.1241L11.716 14.5106L8.66735 12.9109L7.99929 12.5605L8.00019 3.09214L9.52347 6.17542L9.8572 6.85094L10.6038 6.9596L14.0136 7.45602L11.5465 9.85542Z" fill="black"/>
</g>
<defs>
<clipPath id="clip0_37_750">
<rect width="16" height="16" fill="white" transform="translate(0 0.699951)"/>
</clipPath>
</defs>
</svg>
