<svg width="16" height="17" viewBox="0 0 16 17" fill="none" xmlns="http://www.w3.org/2000/svg">
<g clip-path="url(#clip0_25_1389)">
<path d="M16.4219 5.66865L14.8406 0.924902C14.6375 0.312402 14.0656 -0.100098 13.4187 -0.100098H9V5.8999H16.4594C16.4469 5.82178 16.4469 5.74365 16.4219 5.66865ZM8 -0.100098H3.58125C2.93437 -0.100098 2.3625 0.312402 2.15937 0.924902L0.578125 5.66865C0.553125 5.74365 0.553125 5.82178 0.540625 5.8999H8V-0.100098ZM0.5 6.8999V14.3999C0.5 15.228 1.17188 15.8999 2 15.8999H15C15.8281 15.8999 16.5 15.228 16.5 14.3999V6.8999H0.5Z" fill="white"/>
</g>
<defs>
<clipPath id="clip0_25_1389">
<rect width="16" height="16" fill="white" transform="translate(0 0.399902)"/>
</clipPath>
</defs>
</svg>
