<svg width="25" height="29" viewBox="0 0 25 29" fill="none" xmlns="http://www.w3.org/2000/svg">
<path d="M21.6304 20.8217H7.67339L8.37417 19.2754L20.0179 19.2525C20.4117 19.2525 20.7492 18.9479 20.8195 18.5264L22.432 8.74844C22.4742 8.49199 22.4109 8.22793 22.2562 8.02734C22.1798 7.92863 22.0844 7.84911 21.9767 7.7943C21.8691 7.7395 21.7517 7.71072 21.6328 7.70996L6.82026 7.65664L6.6937 7.01172C6.61401 6.60039 6.27183 6.30078 5.88276 6.30078H2.26167C2.04224 6.30078 1.83181 6.39521 1.67665 6.5633C1.52149 6.73138 1.43433 6.95936 1.43433 7.19707C1.43433 7.43478 1.52149 7.66276 1.67665 7.83084C1.83181 7.99893 2.04224 8.09336 2.26167 8.09336H5.21245L5.76558 10.9422L7.1273 18.0846L5.37417 21.1848C5.28313 21.3179 5.22829 21.476 5.21587 21.6411C5.20344 21.8062 5.23392 21.9718 5.30386 22.1191C5.44448 22.4213 5.72808 22.6117 6.04214 22.6117H7.51401C7.20023 23.0632 7.03074 23.6132 7.0312 24.1783C7.0312 25.6154 8.10933 26.7834 9.43589 26.7834C10.7625 26.7834 11.8406 25.6154 11.8406 24.1783C11.8406 23.6121 11.6671 23.0611 11.3578 22.6117H15.1335C14.8198 23.0632 14.6503 23.6132 14.6507 24.1783C14.6507 25.6154 15.7289 26.7834 17.0554 26.7834C18.382 26.7834 19.4601 25.6154 19.4601 24.1783C19.4601 23.6121 19.2867 23.0611 18.9773 22.6117H21.6328C22.0875 22.6117 22.4601 22.2105 22.4601 21.7154C22.4587 21.478 22.3707 21.2507 22.2153 21.0833C22.0599 20.9159 21.8496 20.8218 21.6304 20.8217ZM7.1648 9.42383L20.6601 9.47207L19.3382 17.4904L8.73745 17.5107L7.1648 9.42383ZM9.43589 24.9807C9.02808 24.9807 8.69526 24.6201 8.69526 24.1783C8.69526 23.7365 9.02808 23.376 9.43589 23.376C9.8437 23.376 10.1765 23.7365 10.1765 24.1783C10.1765 24.3911 10.0985 24.5952 9.95959 24.7457C9.8207 24.8961 9.63231 24.9807 9.43589 24.9807ZM17.0554 24.9807C16.6476 24.9807 16.3148 24.6201 16.3148 24.1783C16.3148 23.7365 16.6476 23.376 17.0554 23.376C17.4632 23.376 17.796 23.7365 17.796 24.1783C17.796 24.3911 17.718 24.5952 17.5791 24.7457C17.4402 24.8961 17.2518 24.9807 17.0554 24.9807Z" fill="white"/>
<rect x="12.6001" y="0.5" width="12" height="12" rx="6" fill="#DB2777"/>
<path d="M17.9965 10.4945C17.9965 10.3673 17.9965 10.2364 17.9965 10.1018C17.9965 9.96364 18.0001 9.82182 18.0074 9.67636C18.0146 9.25455 18.0183 8.78182 18.0183 8.25818C18.0183 7.73818 17.9965 7.18545 17.9528 6.6C17.9128 6.01455 17.8401 5.40727 17.7346 4.77818C17.6328 4.14545 17.4819 3.50909 17.2819 2.86909L18.2583 2.55273C18.4728 3.23273 18.6346 3.90545 18.7437 4.57091C18.8565 5.23273 18.9346 5.87091 18.9783 6.48545C19.0256 7.09636 19.0492 7.67273 19.0492 8.21455C19.0492 8.76 19.0456 9.25273 19.0383 9.69273C19.031 9.83818 19.0274 9.97818 19.0274 10.1127C19.0274 10.2473 19.0274 10.3745 19.0274 10.4945H17.9965Z" fill="white"/>
<a href="https://www.figma.com/design/PRDldKFYVkUsxAowgBlRJ6/Quera-Front-React--Bootcamp---Summer-1404-%F0%9F%8F%95%EF%B8%8F?node-id=25-2186">
<rect fill="black" fill-opacity="0" y="-4.36364" width="3.40364" height="20.7273"/>
</a>
</svg>
