<svg width="25" height="29" viewBox="0 0 25 29" fill="none" xmlns="http://www.w3.org/2000/svg">
<path d="M21.6297 20.8217H7.67266L8.37344 19.2754L20.0172 19.2525C20.4109 19.2525 20.7484 18.9479 20.8188 18.5264L22.4313 8.74844C22.4734 8.49199 22.4102 8.22793 22.2555 8.02734C22.179 7.92863 22.0837 7.84911 21.976 7.7943C21.8683 7.7395 21.751 7.71072 21.632 7.70996L6.81953 7.65664L6.69297 7.01172C6.61328 6.60039 6.27109 6.30078 5.88203 6.30078H2.26094C2.04151 6.30078 1.83107 6.39521 1.67592 6.5633C1.52076 6.73138 1.43359 6.95936 1.43359 7.19707C1.43359 7.43478 1.52076 7.66276 1.67592 7.83084C1.83107 7.99893 2.04151 8.09336 2.26094 8.09336H5.21172L5.76484 10.9422L7.12656 18.0846L5.37344 21.1848C5.2824 21.3179 5.22756 21.476 5.21513 21.6411C5.20271 21.8062 5.23319 21.9718 5.30313 22.1191C5.44375 22.4213 5.72734 22.6117 6.04141 22.6117H7.51328C7.1995 23.0632 7.03001 23.6132 7.03047 24.1783C7.03047 25.6154 8.10859 26.7834 9.43516 26.7834C10.7617 26.7834 11.8398 25.6154 11.8398 24.1783C11.8398 23.6121 11.6664 23.0611 11.357 22.6117H15.1328C14.819 23.0632 14.6495 23.6132 14.65 24.1783C14.65 25.6154 15.7281 26.7834 17.0547 26.7834C18.3813 26.7834 19.4594 25.6154 19.4594 24.1783C19.4594 23.6121 19.2859 23.0611 18.9766 22.6117H21.632C22.0867 22.6117 22.4594 22.2105 22.4594 21.7154C22.458 21.478 22.37 21.2507 22.2146 21.0833C22.0591 20.9159 21.8489 20.8218 21.6297 20.8217ZM7.16406 9.42383L20.6594 9.47207L19.3375 17.4904L8.73672 17.5107L7.16406 9.42383ZM9.43516 24.9807C9.02734 24.9807 8.69453 24.6201 8.69453 24.1783C8.69453 23.7365 9.02734 23.376 9.43516 23.376C9.84297 23.376 10.1758 23.7365 10.1758 24.1783C10.1758 24.3911 10.0978 24.5952 9.95886 24.7457C9.81996 24.8961 9.63158 24.9807 9.43516 24.9807ZM17.0547 24.9807C16.6469 24.9807 16.3141 24.6201 16.3141 24.1783C16.3141 23.7365 16.6469 23.376 17.0547 23.376C17.4625 23.376 17.7953 23.7365 17.7953 24.1783C17.7953 24.3911 17.7173 24.5952 17.5784 24.7457C17.4395 24.8961 17.2511 24.9807 17.0547 24.9807Z" fill="black"/>
<rect x="12.5996" y="0.5" width="12" height="12" rx="6" fill="#DB2777"/>
<path d="M17.996 10.4945C17.996 10.3673 17.996 10.2364 17.996 10.1018C17.996 9.96364 17.9996 9.82182 18.0069 9.67636C18.0142 9.25455 18.0178 8.78364 18.0178 8.26364C18.0178 7.74 17.996 7.18545 17.9523 6.6C17.9123 6.01455 17.8396 5.40727 17.7342 4.77818C17.6323 4.14545 17.4814 3.50909 17.2814 2.86909L18.2578 2.55273C18.4723 3.23273 18.6342 3.90545 18.7432 4.57091C18.856 5.23273 18.9342 5.87091 18.9778 6.48545C19.0251 7.09636 19.0487 7.67455 19.0487 8.22C19.0487 8.76182 19.0451 9.25273 19.0378 9.69273C19.0305 9.83818 19.0269 9.97818 19.0269 10.1127C19.0269 10.2473 19.0269 10.3745 19.0269 10.4945H17.996Z" fill="black"/>
<a href="https://www.figma.com/design/PRDldKFYVkUsxAowgBlRJ6/Quera-Front-React--Bootcamp---Summer-1404-%F0%9F%8F%95%EF%B8%8F?node-id=25-2186">
<rect fill="black" fill-opacity="0" y="-4.36364" width="3.25091" height="20.7273"/>
</a>
</svg>
