<svg width="16" height="17" viewBox="0 0 16 17" fill="none" xmlns="http://www.w3.org/2000/svg">
<g clip-path="url(#clip0_25_843)">
<path d="M8.5 0.25C4.21875 0.25 0.75 3.71875 0.75 8C0.75 12.2812 4.21875 15.75 8.5 15.75C12.7812 15.75 16.25 12.2812 16.25 8C16.25 3.71875 12.7812 0.25 8.5 0.25ZM11.3903 10.0312L10.7653 10.8125C10.7243 10.8638 10.6736 10.9065 10.6161 10.9382C10.5585 10.9698 10.4954 10.9899 10.4301 10.9971C10.3648 11.0044 10.2988 10.9987 10.2357 10.9804C10.1726 10.9622 10.1138 10.9316 10.0625 10.8906L7.96875 9.33687C7.82246 9.21975 7.70437 9.07122 7.62323 8.90229C7.54209 8.73336 7.49998 8.54834 7.5 8.36094V3.5C7.5 3.36739 7.55268 3.24021 7.64645 3.14645C7.74021 3.05268 7.86739 3 8 3H9C9.13261 3 9.25979 3.05268 9.35355 3.14645C9.44732 3.24021 9.5 3.36739 9.5 3.5V8L11.3125 9.32812C11.3638 9.36917 11.4065 9.41992 11.4382 9.47747C11.4699 9.53503 11.4899 9.59826 11.4971 9.66356C11.5043 9.72886 11.4986 9.79494 11.4803 9.85804C11.462 9.92113 11.4314 9.97998 11.3903 10.0312Z" fill="black"/>
</g>
<defs>
<clipPath id="clip0_25_843">
<rect width="16" height="16" fill="white" transform="translate(0 0.5)"/>
</clipPath>
</defs>
</svg>
