<svg width="25" height="24" viewBox="0 0 25 24" fill="none" xmlns="http://www.w3.org/2000/svg">
<mask id="mask0_63_889" style="mask-type:alpha" maskUnits="userSpaceOnUse" x="0" y="0" width="25" height="24">
<rect x="0.75" width="24" height="24" fill="#D9D9D9"/>
</mask>
<g mask="url(#mask0_63_889)">
<path d="M12.7508 13.4L7.85078 18.3C7.66745 18.4833 7.43411 18.575 7.15078 18.575C6.86745 18.575 6.63411 18.4833 6.45078 18.3C6.26745 18.1167 6.17578 17.8833 6.17578 17.6C6.17578 17.3167 6.26745 17.0833 6.45078 16.9L11.3508 12L6.45078 7.1C6.26745 6.91667 6.17578 6.68334 6.17578 6.4C6.17578 6.11667 6.26745 5.88334 6.45078 5.7C6.63411 5.51667 6.86745 5.425 7.15078 5.425C7.43411 5.425 7.66745 5.51667 7.85078 5.7L12.7508 10.6L17.6508 5.7C17.8341 5.51667 18.0674 5.425 18.3508 5.425C18.6341 5.425 18.8674 5.51667 19.0508 5.7C19.2341 5.88334 19.3258 6.11667 19.3258 6.4C19.3258 6.68334 19.2341 6.91667 19.0508 7.1L14.1508 12L19.0508 16.9C19.2341 17.0833 19.3258 17.3167 19.3258 17.6C19.3258 17.8833 19.2341 18.1167 19.0508 18.3C18.8674 18.4833 18.6341 18.575 18.3508 18.575C18.0674 18.575 17.8341 18.4833 17.6508 18.3L12.7508 13.4Z" fill="#B71D18"/>
</g>
</svg>
