<svg width="16" height="17" viewBox="0 0 16 17" fill="none" xmlns="http://www.w3.org/2000/svg">
<g clip-path="url(#clip0_25_1358)">
<path d="M16.1364 4.33101L14.4507 1.6401C14.3 1.39854 14.0325 1.25049 13.7468 1.25049H3.25325C2.96754 1.25049 2.7 1.39854 2.54935 1.6401L0.863639 4.33101C-0.00649071 5.72062 0.764938 7.65309 2.39091 7.87387C2.5078 7.88945 2.62728 7.89724 2.74676 7.89724C3.51559 7.89724 4.19611 7.55958 4.66364 7.0375C5.13117 7.55958 5.81429 7.89724 6.58052 7.89724C7.34935 7.89724 8.02987 7.55958 8.49741 7.0375C8.96494 7.55958 9.64806 7.89724 10.4143 7.89724C11.1831 7.89724 11.8636 7.55958 12.3312 7.0375C12.8013 7.55958 13.4818 7.89724 14.2481 7.89724C14.3701 7.89724 14.487 7.88945 14.6039 7.87387C16.2351 7.65568 17.0091 5.72322 16.1364 4.33101ZM14.2533 8.73101C13.9935 8.73101 13.7364 8.69205 13.487 8.63231V11.2245H3.51299V8.63231C3.26364 8.68945 3.0065 8.73101 2.74676 8.73101C2.59091 8.73101 2.43247 8.72062 2.27922 8.69984C2.13377 8.67906 1.99091 8.64529 1.85325 8.60633V13.718C1.85325 14.1778 2.22468 14.5492 2.68442 14.5492H14.3208C14.7805 14.5492 15.152 14.1778 15.152 13.718V8.60633C15.0117 8.64789 14.8714 8.68166 14.726 8.69984C14.5675 8.72062 14.4117 8.73101 14.2533 8.73101Z" fill="white"/>
</g>
<defs>
<clipPath id="clip0_25_1358">
<rect width="16" height="16" fill="white" transform="translate(0 0.399902)"/>
</clipPath>
</defs>
</svg>
