<svg width="12" height="7" viewBox="0 0 12 7" fill="none" xmlns="http://www.w3.org/2000/svg">
<path d="M6.00005 4.19995L9.90005 0.299951C10.0834 0.116618 10.3167 0.0249511 10.6 0.0249511C10.8834 0.0249511 11.1167 0.116618 11.3 0.299951C11.4834 0.483285 11.575 0.716618 11.575 0.999951C11.575 1.28328 11.4834 1.51662 11.3 1.69995L6.70005 6.29995C6.60005 6.39995 6.49172 6.47078 6.37505 6.51245C6.25838 6.55412 6.13338 6.57495 6.00005 6.57495C5.86672 6.57495 5.74172 6.55412 5.62505 6.51245C5.50838 6.47078 5.40005 6.39995 5.30005 6.29995L0.700049 1.69995C0.516716 1.51662 0.425049 1.28328 0.425049 0.999951C0.425049 0.716618 0.516716 0.483284 0.700049 0.299951C0.883382 0.116618 1.11672 0.024951 1.40005 0.024951C1.68338 0.024951 1.91672 0.116618 2.10005 0.299951L6.00005 4.19995Z" fill="black"/>
</svg>
