<svg width="16" height="16" viewBox="0 0 16 16" fill="none" xmlns="http://www.w3.org/2000/svg">
<path d="M14.325 2.00933C12.5188 0.490577 9.72813 0.718702 8 2.47808C6.27188 0.718702 3.48125 0.487452 1.675 2.00933C-0.674996 3.98745 -0.331246 7.21245 1.34375 8.92183L6.825 14.5062C7.1375 14.825 7.55625 15.0031 8 15.0031C8.44688 15.0031 8.8625 14.8281 9.175 14.5093L14.6563 8.92495C16.3281 7.21558 16.6781 3.99058 14.325 2.00933ZM13.5875 7.8687L8.10625 13.4531C8.03125 13.5281 7.96875 13.5281 7.89375 13.4531L2.4125 7.8687C1.27188 6.7062 1.04063 4.5062 2.64063 3.15933C3.85625 2.13745 5.73125 2.29058 6.90625 3.48745L8 4.60308L9.09375 3.48745C10.275 2.28433 12.15 2.13745 13.3594 3.1562C14.9563 4.50308 14.7188 6.71558 13.5875 7.8687Z" fill="#58616C"/>
</svg>
