<svg width="16" height="17" viewBox="0 0 16 17" fill="none" xmlns="http://www.w3.org/2000/svg">
<g clip-path="url(#clip0_25_705)">
<path d="M15.17 9.25889L16.4831 3.48111C16.5779 3.06394 16.2609 2.66669 15.8331 2.66669H4.92244L4.66783 1.42197C4.60439 1.11172 4.33139 0.888916 4.01469 0.888916H1.16667C0.798472 0.888916 0.5 1.18739 0.5 1.55558V2.00003C0.5 2.36822 0.798472 2.66669 1.16667 2.66669H3.10786L5.05919 12.2066C4.59236 12.475 4.27778 12.9784 4.27778 13.5556C4.27778 14.4147 4.97422 15.1111 5.83333 15.1111C6.69244 15.1111 7.38889 14.4147 7.38889 13.5556C7.38889 13.1202 7.20981 12.7268 6.92156 12.4445H12.7451C12.4569 12.7268 12.2778 13.1202 12.2778 13.5556C12.2778 14.4147 12.9742 15.1111 13.8333 15.1111C14.6924 15.1111 15.3889 14.4147 15.3889 13.5556C15.3889 12.9397 15.0309 12.4075 14.5117 12.1554L14.6649 11.4811C14.7597 11.0639 14.4427 10.6667 14.0149 10.6667H6.55881L6.377 9.77781H14.5199C14.8312 9.77781 15.101 9.56242 15.17 9.25889Z" fill="white"/>
</g>
<defs>
<clipPath id="clip0_25_705">
<rect width="16" height="16" fill="white" transform="translate(0 0.5)"/>
</clipPath>
</defs>
</svg>
