<svg width="16" height="16" viewBox="0 0 16 16" fill="none" xmlns="http://www.w3.org/2000/svg">
<g clip-path="url(#clip0_25_711)">
<path d="M16.4219 5.26875L14.8406 0.525C14.6375 -0.0875 14.0656 -0.5 13.4187 -0.5H9V5.5H16.4594C16.4469 5.42188 16.4469 5.34375 16.4219 5.26875ZM8 -0.5H3.58125C2.93437 -0.5 2.3625 -0.0875 2.15937 0.525L0.578125 5.26875C0.553125 5.34375 0.553125 5.42188 0.540625 5.5H8V-0.5ZM0.5 6.5V14C0.5 14.8281 1.17188 15.5 2 15.5H15C15.8281 15.5 16.5 14.8281 16.5 14V6.5H0.5Z" fill="white"/>
</g>
<defs>
<clipPath id="clip0_25_711">
<rect width="16" height="16" fill="white"/>
</clipPath>
</defs>
</svg>
