<svg width="24" height="26" viewBox="0 0 24 26" fill="none" xmlns="http://www.w3.org/2000/svg">
<path d="M22.1829 12.8223L13.1267 3.01641L12.5196 2.35879C12.3813 2.20994 12.1943 2.1264 11.9993 2.1264C11.8044 2.1264 11.6173 2.20994 11.479 2.35879L1.81572 12.8223C1.674 12.9752 1.56199 13.1573 1.48631 13.3579C1.41063 13.5585 1.37282 13.7735 1.3751 13.9902C1.38447 14.884 2.07119 15.5975 2.89619 15.5975H3.89228V23.8672H20.1063V15.5975H21.1235C21.5243 15.5975 21.9017 15.4273 22.1853 15.1201C22.3249 14.9693 22.4355 14.79 22.5108 14.5926C22.586 14.3952 22.6243 14.1835 22.6235 13.9699C22.6235 13.5383 22.4665 13.1295 22.1829 12.8223ZM13.3118 22.0391H10.6868V16.8594H13.3118V22.0391ZM18.4188 13.7693V22.0391H14.8118V16.25C14.8118 15.6889 14.3923 15.2344 13.8743 15.2344H10.1243C9.60635 15.2344 9.18682 15.6889 9.18682 16.25V22.0391H5.57978V13.7693H3.32978L12.0017 4.38242L12.5431 4.96895L20.6712 13.7693H18.4188Z" fill="black"/>
</svg>
