<svg width="24" height="26" viewBox="0 0 24 26" fill="none" xmlns="http://www.w3.org/2000/svg">
<path d="M19.5 7.92188H16.3125V7.51562C16.3125 4.93594 14.3813 2.84375 12 2.84375C9.61875 2.84375 7.6875 4.93594 7.6875 7.51562V7.92188H4.5C4.08516 7.92188 3.75 8.28496 3.75 8.73438V22.3438C3.75 22.7932 4.08516 23.1562 4.5 23.1562H19.5C19.9148 23.1562 20.25 22.7932 20.25 22.3438V8.73438C20.25 8.28496 19.9148 7.92188 19.5 7.92188ZM9.375 7.51562C9.375 5.94395 10.5492 4.67188 12 4.67188C13.4508 4.67188 14.625 5.94395 14.625 7.51562V7.92188H9.375V7.51562ZM18.5625 21.3281H5.4375V9.75H7.6875V11.9844C7.6875 12.0961 7.77187 12.1875 7.875 12.1875H9.1875C9.29063 12.1875 9.375 12.0961 9.375 11.9844V9.75H14.625V11.9844C14.625 12.0961 14.7094 12.1875 14.8125 12.1875H16.125C16.2281 12.1875 16.3125 12.0961 16.3125 11.9844V9.75H18.5625V21.3281Z" fill="black"/>
</svg>
