<svg width="25" height="24" viewBox="0 0 25 24" fill="none" xmlns="http://www.w3.org/2000/svg">
<mask id="mask0_63_847" style="mask-type:alpha" maskUnits="userSpaceOnUse" x="0" y="0" width="25" height="24">
<rect x="0.75" width="24" height="24" fill="#D9D9D9"/>
</mask>
<g mask="url(#mask0_63_847)">
<path d="M10.2997 15.15L18.7747 6.675C18.9747 6.475 19.2081 6.375 19.4747 6.375C19.7414 6.375 19.9747 6.475 20.1747 6.675C20.3747 6.875 20.4747 7.1125 20.4747 7.3875C20.4747 7.6625 20.3747 7.9 20.1747 8.1L10.9997 17.3C10.7997 17.5 10.5664 17.6 10.2997 17.6C10.0331 17.6 9.79972 17.5 9.59972 17.3L5.29972 13C5.09972 12.8 5.00389 12.5625 5.01222 12.2875C5.02055 12.0125 5.12472 11.775 5.32472 11.575C5.52472 11.375 5.76222 11.275 6.03722 11.275C6.31222 11.275 6.54972 11.375 6.74972 11.575L10.2997 15.15Z" fill="#22C55E"/>
</g>
</svg>
