<svg width="25" height="24" viewBox="0 0 25 24" fill="none" xmlns="http://www.w3.org/2000/svg">
<mask id="mask0_63_901" style="mask-type:alpha" maskUnits="userSpaceOnUse" x="0" y="0" width="25" height="24">
<rect x="0.25" width="24" height="24" fill="#D9D9D9"/>
</mask>
<g mask="url(#mask0_63_901)">
<path d="M4.25 24C3.7 24 3.22917 23.8042 2.8375 23.4125C2.44583 23.0208 2.25 22.55 2.25 22C2.25 21.45 2.44583 20.9792 2.8375 20.5875C3.22917 20.1958 3.7 20 4.25 20H20.25C20.8 20 21.2708 20.1958 21.6625 20.5875C22.0542 20.9792 22.25 21.45 22.25 22C22.25 22.55 22.0542 23.0208 21.6625 23.4125C21.2708 23.8042 20.8 24 20.25 24H4.25ZM6.25 16H7.65L15.45 8.225L14.025 6.8L6.25 14.6V16ZM4.25 17V14.175C4.25 14.0417 4.275 13.9125 4.325 13.7875C4.375 13.6625 4.45 13.55 4.55 13.45L15.45 2.575C15.6333 2.39167 15.8458 2.25 16.0875 2.15C16.3292 2.05 16.5833 2 16.85 2C17.1167 2 17.375 2.05 17.625 2.15C17.875 2.25 18.1 2.4 18.3 2.6L19.675 4C19.875 4.18333 20.0208 4.4 20.1125 4.65C20.2042 4.9 20.25 5.15833 20.25 5.425C20.25 5.675 20.2042 5.92083 20.1125 6.1625C20.0208 6.40417 19.875 6.625 19.675 6.825L8.8 17.7C8.7 17.8 8.5875 17.875 8.4625 17.925C8.3375 17.975 8.20833 18 8.075 18H5.25C4.96667 18 4.72917 17.9042 4.5375 17.7125C4.34583 17.5208 4.25 17.2833 4.25 17Z" fill="white"/>
</g>
</svg>
