<svg width="17" height="12" viewBox="0 0 17 12" fill="none" xmlns="http://www.w3.org/2000/svg">
<path d="M6.04972 9.15L14.5247 0.675C14.7247 0.475 14.9581 0.375 15.2247 0.375C15.4914 0.375 15.7247 0.475 15.9247 0.675C16.1247 0.875 16.2247 1.1125 16.2247 1.3875C16.2247 1.6625 16.1247 1.9 15.9247 2.1L6.74972 11.3C6.54972 11.5 6.31639 11.6 6.04972 11.6C5.78305 11.6 5.54972 11.5 5.34972 11.3L1.04972 7C0.849719 6.8 0.753885 6.5625 0.762219 6.2875C0.770552 6.0125 0.874719 5.775 1.07472 5.575C1.27472 5.375 1.51222 5.275 1.78722 5.275C2.06222 5.275 2.29972 5.375 2.49972 5.575L6.04972 9.15Z" fill="white"/>
</svg>
